PathFileType	4	(X/Y/Z)	G:\Shared drives\HIT\Data\HapticPilot\Subject1\Edited\RHJC1.trc
DataRate	CameraRate	NumFrames	NumMarkers	Units	OrigDataRate	OrigDataStartFrame	OrigNumFrames
50.00	50.00	       4	38	mm	50.00	357	       571
Frame#	Time	r_knee			r_shank(antsup)			r_ankle			r_calc			r_5meta			r_toe			L_knee			L_shank(ant_sup)			L_ankle			L_calc			L_5meta			L_toe			r_mknee			r_mankle			L_mknee			L_mankle			r_sh2			r_sh3			r_sh4			L_sh2			L_sh3			r_thigh1			r_thigh2			r_thigh3			r_thigh4			r_thigh5			L_thigh1			L_thigh2			L_thigh3			L_thigh4			r.ASIS			r.PSIS			L.ASIS			L.PSIS			C7			R_Shoulder			L_Shoulder			Sternum			
		X1	Y1	Z1	X2	Y2	Z2	X3	Y3	Z3	X4	Y4	Z4	X5	Y5	Z5	X6	Y6	Z6	X7	Y7	Z7	X8	Y8	Z8	X9	Y9	Z9	X10	Y10	Z10	X11	Y11	Z11	X12	Y12	Z12	X13	Y13	Z13	X14	Y14	Z14	X15	Y15	Z15	X16	Y16	Z16	X17	Y17	Z17	X18	Y18	Z18	X19	Y19	Z19	X20	Y20	Z20	X21	Y21	Z21	X22	Y22	Z22	X23	Y23	Z23	X24	Y24	Z24	X25	Y25	Z25	X26	Y26	Z26	X27	Y27	Z27	X28	Y28	Z28	X29	Y29	Z29	X30	Y30	Z30	X31	Y31	Z31	X32	Y32	Z32	X33	Y33	Z33	X34	Y34	Z34	X35	Y35	Z35	X36	Y36	Z36	X37	Y37	Z37	X38	Y38	Z38	

357	7.120	586.38190	607.04559	641.02863	544.54010	603.55066	560.58942	245.67278	588.64172	313.43909	144.85429	626.71008	336.45258	282.29138	572.74542	183.02585	332.83185	636.61652	189.69620	745.08008	874.13751	564.94354	774.78656	860.34106	447.44629	696.92914	812.31274	109.11246	620.92273	755.21210	72.19503	814.29315	849.08905	41.57986	861.04779	792.42609	69.20700	570.77252	733.64178	627.14246	252.60077	685.21313	316.38861	767.41968	751.42920	569.42212	727.01056	722.82831	123.24488	460.75369	593.70715	475.15488	490.33005	586.14697	611.20477	405.39368	572.64374	533.77466	686.49573	880.52112	463.54590	677.46887	863.14954	341.96341	781.34656	597.59729	912.41040	739.62488	600.40106	804.73218	683.77045	587.94476	792.45587	675.45099	576.02405	947.65155	635.46545	589.08661	838.11639	818.12537	926.88361	831.71295	825.94293	907.68512	694.86298	702.04614	938.33923	824.22168	714.15002	906.28180	693.11951	869.41711	660.91895	1092.45093	686.36829	744.10522	1168.14990	848.72113	913.39673	1064.31152	683.25537	827.23450	1153.13855	818.25439	832.19128	1619.97827	871.14899	674.75317	1592.45483	854.41217	1016.60858	1563.69067	937.59833	837.98303	1515.60583	
358	7.140	571.02039	605.94019	646.56537	525.12335	602.32098	568.49872	211.69334	589.11877	339.92599	113.07738	628.83936	368.62668	240.16225	571.41327	207.80182	292.07123	634.68713	210.84148	744.27472	874.87610	564.82837	773.73041	861.10931	447.41031	696.82294	812.72449	108.92312	620.84424	755.38068	72.03294	814.28296	849.06854	41.51673	860.99341	792.35089	69.18359	557.12726	732.76483	631.70349	220.01353	685.83636	341.72672	766.81189	751.80017	569.23431	726.93329	723.15320	123.35740	436.36398	592.47546	488.23834	474.06268	586.28528	622.30524	384.24854	573.14325	550.29938	685.43140	881.25519	463.32904	676.49536	863.72296	341.76538	774.48950	597.11670	911.89716	729.52557	599.44061	805.32336	673.36035	587.42517	794.87592	669.69092	576.99585	950.20435	626.62848	592.20282	841.53839	817.89154	927.43542	831.39038	825.45044	908.09308	694.52869	701.84186	939.18549	824.27173	713.70062	907.11578	692.87921	868.39087	659.98096	1089.23340	688.54535	745.20978	1169.38220	850.04883	912.78540	1062.25818	685.97681	828.51605	1154.44690	820.32690	833.10431	1618.97961	873.22900	675.76886	1592.02942	856.27039	1017.45099	1562.79761	940.05750	838.90479	1515.05005	
359	7.160	556.01465	604.45337	652.47931	505.91647	600.56995	576.69720	178.99420	589.67908	368.29388	82.62701	630.93182	401.67813	199.29669	569.32666	235.16855	251.87421	633.33337	233.94562	743.08716	875.70319	564.74341	772.85352	861.62823	447.49527	696.75610	813.16248	108.77354	620.75751	755.59430	71.95815	814.31537	848.95117	41.46729	860.95245	792.23273	69.21083	543.37012	731.36359	636.47198	188.42670	685.99219	367.71442	765.19891	752.84955	569.23163	726.93732	723.52380	123.66409	412.41132	591.14929	502.05206	458.22424	585.96027	633.59595	363.70612	573.20245	567.32880	684.38190	882.49420	463.38882	675.79419	864.62823	341.54440	767.01544	596.86310	911.62256	718.96069	598.31982	806.50159	662.61511	586.68439	797.65918	662.81506	580.23651	953.40613	617.17957	592.89789	845.55609	817.51227	927.97272	831.07465	824.62921	908.42462	694.16351	701.54041	940.11273	824.31012	712.87726	907.91779	692.76288	866.50470	659.17560	1085.54871	690.34766	746.15729	1170.63672	852.07104	912.05627	1060.42236	688.40643	829.37231	1155.49011	822.60809	833.97644	1617.95398	875.42401	676.69330	1591.42407	858.60596	1018.24908	1561.73499	942.82715	839.75287	1514.60132	
360	7.180	541.55835	602.75769	658.35248	487.35181	598.94824	585.13757	148.00073	590.34497	398.32477	53.78167	633.65955	437.12769	159.77521	568.31976	264.66891	213.07846	631.22778	259.51508	742.14838	876.47260	564.91193	772.17889	862.13153	447.85944	696.71625	813.69574	108.71626	620.69519	755.87561	71.91923	814.40057	848.80353	41.52563	860.91998	792.03564	69.24957	530.38715	729.57263	641.60956	158.43526	686.46558	395.91339	762.71161	753.41016	569.58081	726.73077	723.97034	123.87195	389.23184	590.49182	516.72638	443.11328	585.28851	645.42261	344.12729	572.94403	585.71826	684.04260	883.36389	463.18643	675.34137	865.89752	341.57526	758.93048	596.11951	911.85748	708.46753	596.67126	807.90112	651.58569	585.65778	800.88782	655.94421	582.06134	956.72821	607.53259	593.59991	849.81702	817.26764	928.22455	830.91235	823.66650	908.61548	693.98798	701.41827	941.32367	824.34344	711.43372	908.84052	693.24976	865.50629	657.78345	1083.10352	691.77710	747.03369	1172.01477	853.24066	911.36786	1058.47070	690.49152	830.30096	1156.66711	824.98859	834.90668	1616.95203	877.74146	677.64032	1590.89929	861.19763	1019.15094	1560.56934	945.56842	840.64966	1514.02283	
